<?xml version="1.0"?>
<svg version="1.1" xmlns="http://www.w3.org/2000/svg" width="200" height="60" style=""><path fill="#d2d6d9" d="M16.48,49.98l0-2.22l3.145-0.74l0-19.98l-3.145-0.74l0-2.035l10.545-0.185l0,2.22l-3.515,0.74l0,8.14l12.395,0l0-8.14l-3.515-0.74l0-2.035l10.545-0.185l0,2.22l-3.145,0.74l0,19.98l3.145,0.74l0,2.22l-10.545,0l0-2.22l3.515-0.74l0-8.88l-12.395,0l0,8.88l3.515,0.74l0,2.22l-10.545,0z M61.1982,23.71c7.215,0,11.47,4.995,11.47,12.95c0,8.14-4.995,13.69-12.21,13.69s-11.285-4.625-11.285-13.135c0-8.14,4.625-13.505,12.025-13.505z M61.0132,26.855c-4.81,0-7.585,3.145-7.585,10.175c0,6.66,2.405,10.175,7.215,10.175s7.77-3.33,7.77-10.36c0-6.66-2.59-9.99-7.4-9.99z M82.0514,47.02l0-19.98l-3.145-0.74l0-2.035l7.03-0.185l4.07,0c5.217,0,8.325,2.516,8.325,6.66c0,3.589-1.628,6.031-4.81,7.215c0.592,0.518,1.258,1.48,2.22,3.33l2.923,5.883l2.627,0.592l0,2.22l-5.55,0l-3.145-6.845c-1.739-3.7-2.553-4.44-4.995-4.44l-1.665,0l0,8.325l3.145,0.74l0,2.22l-10.175,0l0-2.22z M85.9364,35.92l2.775,0c3.626,0,5.735-1.702,5.735-4.625c0-2.479-1.924-4.255-4.625-4.255l-3.885,0l0,8.88z M107.2336,47.057l8.436-22.792l3.7-0.185l8.214,22.977l3.071,0.703l0,2.22l-10.73,0l0-2.22l3.441-0.703l-1.406-4.107l-9.62,0l-1.443,4.107l3.478,0.703l0,2.22l-10.175,0l0-2.22z M120.9606,39.99l-3.737-11.137l-3.885,11.137l7.622,0z M138.1878,49.98l0-2.22l3.7-0.74l0-19.98l-4.81,0l-0.925,3.7l-2.405,0l0-6.66l20.165,0l0,6.66l-2.405,0l-0.925-3.7l-4.81,0l0,19.98l3.7,0.74l0,2.22l-11.285,0z M158.486,49.98l0-2.22l3.145-0.74l0-19.98l-3.145-0.74l0-2.035l10.175-0.185l0,2.22l-3.145,0.74l0,19.98l3.145,0.74l0,2.22l-10.175,0z M197.4692,27.04l0,12.395c0,6.845-2.405,10.915-10.175,10.915c-7.215,0-9.805-3.515-9.805-10.36l0-12.95l-3.145-0.74l0-2.035l10.545-0.185l0,2.22l-3.515,0.74l0,12.95c0,5.55,1.85,7.215,6.105,7.215c4.625,0,6.105-2.035,6.105-7.77l0-12.395l-3.515-0.74l0-2.035l10.545-0.185l0,2.22z"/><path fill="#" d=""/></svg>
