<?xml version="1.0"?>
<svg version="1.1" xmlns="http://www.w3.org/2000/svg" width="51" height="54" style=""><path fill="#b9eb07" d="M16.11328125,23.513671875q-0.0390625-0.517578125,0.087890625-0.9765625t0.478515625-0.76171875t1.19140625-0.302734375q0.1953125,0,0.478515625,0.0390625t0.56640625,0.126953125t0.458984375,0.244140625t0.17578125,0.4296875q0,0.72265625,0.048828125,1.904296875t0.126953125,2.4609375t0.146484375,2.5t0.126953125,1.982421875q1.5234375-0.078125,3.06640625-0.078125t3.046875-0.078125l2.6953125-0.078125l0-1.93359375q0-3.2421875-0.126953125-6.494140625t-0.439453125-6.494140625q0-0.234375,0.1953125-0.380859375t0.458984375-0.224609375t0.546875-0.09765625t0.439453125-0.01953125q0.44921875,0,0.966796875,0.13671875t0.595703125,0.5859375l0.1171875,0.83984375q0.48828125,3.515625,0.6640625,6.953125t0.25390625,6.875q0.234375,0.0390625,0.498046875,0.126953125t0.537109375,0.166015625q0.1953125,0.078125,0.556640625,0.234375t0.361328125,0.48828125q0,0.3125-0.2734375,0.48828125t-0.615234375,0.263671875t-0.6640625,0.107421875t-0.400390625,0.01953125q0.0390625,1.4453125,0.0390625,2.880859375l0,2.880859375l0,6.30859375l0,3.515625q0,0.234375-0.224609375,0.419921875t-0.537109375,0.302734375t-0.654296875,0.15625t-0.615234375,0.0390625t-0.64453125-0.0390625t-0.6640625-0.15625t-0.517578125-0.29296875t-0.224609375-0.4296875l0-0.83984375q0.078125-3.7109375,0.17578125-7.353515625t0.1953125-7.314453125q-2.12890625,0.078125-4.326171875,0.09765625t-4.365234375,0.09765625q0.234375,2.75390625,0.537109375,5.498046875t0.634765625,5.498046875q0,0.234375-0.224609375,0.419921875t-0.52734375,0.302734375t-0.64453125,0.15625t-0.615234375,0.0390625q-0.56640625,0-1.240234375-0.1953125t-0.751953125-0.72265625q-0.234375-2.0703125-0.439453125-4.5703125t-0.361328125-5.107421875t-0.244140625-5.107421875t-0.087890625-4.53125q0-0.48828125-0.0390625-1.005859375z"/><path fill="#" d=""/></svg>
